<?xml version="1.0" encoding="UTF-8"?>
<!DOCTYPE svg PUBLIC "-//W3C//DTD SVG 1.1//EN" "http://www.w3.org/Graphics/SVG/1.1/DTD/svg11.dtd">
<!-- Creator: CorelDRAW 2021 (64-Bit) -->
<svg xmlns="http://www.w3.org/2000/svg" xml:space="preserve" width="270.551mm" height="58.3354mm" version="1.1" style="shape-rendering:geometricPrecision; text-rendering:geometricPrecision; image-rendering:optimizeQuality; fill-rule:evenodd; clip-rule:evenodd"
viewBox="0 0 5186.62 1118.32"
 xmlns:xlink="http://www.w3.org/1999/xlink"
 xmlns:xodm="http://www.corel.com/coreldraw/odm/2003">
 <defs>
  <style type="text/css">
   <![CDATA[
    .str0 {stroke:white;stroke-width:4.79;stroke-miterlimit:2.61313}
    .fil0 {fill:white}
    .fil1 {fill:white;fill-rule:nonzero}
   ]]>
  </style>
 </defs>
 <g id="Layer_x0020_1">
  <metadata id="CorelCorpID_0Corel-Layer"/>
  <g id="_1708012112160">
   <path class="fil0" d="M463.9 914.28c-3.38,-1.68 -6.74,-15.19 -8.45,-18.55l-111.33 -281.7c-1.68,-3.38 -1.68,-6.74 -3.38,-10.12 -1.68,-3.38 -3.38,-6.74 -3.38,-10.13 5.06,-3.38 8.44,-6.74 13.48,-10.12 1.68,-1.68 3.38,-3.38 6.74,-5.06l6.74 -5.06c8.44,-8.44 18.55,-16.87 26.99,-26.99l8.44 -10.12c15.19,-18.55 25.31,-38.8 35.41,-59.05 18.55,-38.8 30.35,-92.78 30.35,-136.64 0,-43.86 -1.68,-65.79 -13.48,-107.94 -1.68,-5.06 -3.38,-10.12 -5.06,-15.19 -6.74,-16.87 -11.81,-30.35 -20.25,-47.24 -10.13,-18.55 -21.93,-37.12 -33.73,-52.28l-18.55 -20.25c-8.44,-10.13 -28.67,-26.99 -40.48,-37.12l-11.81 -8.44c-3.38,-3.38 -8.44,-5.06 -11.8,-8.44 -3.38,-1.68 -8.44,-5.06 -11.81,-6.74 -18.55,-11.81 -47.24,-21.93 -69.15,-26.99 -50.6,-13.48 -86.01,-11.81 -136.64,0 -6.74,1.68 -13.48,3.38 -20.25,5.06 -6.74,1.68 -11.8,3.38 -18.55,6.74 -15.19,5.06 -30.35,11.8 -45.54,18.55 -3.38,1.68 -6.74,3.38 -8.44,3.38 10.13,18.55 18.55,37.12 28.67,55.66 3.38,6.74 26.99,50.6 28.67,55.66 3.38,0 18.55,-8.44 21.93,-10.13l16.87 -6.74c1.68,0 3.38,-1.68 6.74,-1.68 33.73,-11.8 64.11,-16.87 99.52,-5.06 16.87,5.06 32.05,11.8 47.24,21.93 8.45,6.74 18.55,13.48 25.31,20.25 1.68,1.68 3.38,3.38 6.74,6.74l5.06 6.74c32.06,35.41 50.6,89.4 50.6,136.64 0,11.8 -1.68,30.35 -3.38,40.47 -5.06,28.67 -13.48,55.66 -30.35,80.97 -3.38,5.06 -6.74,8.44 -10.13,13.48 -1.68,1.68 -3.38,3.38 -5.06,5.06 -6.74,8.44 -20.25,18.55 -30.35,25.31 -23.61,13.48 -38.8,16.87 -65.79,21.93 -5.06,1.68 -13.48,3.38 -18.55,3.38l75.91 200.72c5.06,13.48 10.13,26.99 15.19,40.48 5.06,13.48 10.13,25.31 15.19,38.8 5.06,13.48 10.13,26.99 15.19,40.48 5.06,13.48 10.13,26.99 15.19,38.8 1.68,6.74 5.06,13.48 8.44,20.25l70.85 178.79c3.38,6.74 5.06,13.48 8.44,18.55 5.06,5.06 8.44,10.12 13.48,13.48 3.38,1.68 5.06,3.38 8.44,5.06 13.48,6.74 26.99,8.44 43.86,8.44 21.93,0 47.24,-20.25 53.98,-38.8 10.12,-21.93 18.55,-45.54 26.99,-67.47 18.55,-45.54 35.41,-89.4 53.98,-134.93 38.8,-97.84 328.92,-829.88 345.78,-877.12 0,0 -126.51,0 -126.51,0 -113.01,301.92 -239.52,603.87 -355.91,904.11 -1.68,3.38 -1.68,5.06 -3.38,8.44l5.02 1.73z"/>
   <path class="fil1 str0" d="M1183.59 349.65l58.37 0c38.91,-1.29 68.75,-14.26 88.21,-37.62 20.76,-23.34 29.83,-50.59 29.83,-80.42 0,-33.73 -10.37,-62.27 -32.43,-86.9 -22.05,-24.65 -57.07,-37.62 -103.76,-38.91l-116.74 0 0 518.85 -53.17 0 0 -572.03 180.3 0c55.77,1.29 101.18,18.15 133.6,51.88 33.73,33.73 50.59,76.53 50.59,129.71 0,37.62 -10.37,73.93 -33.73,107.66 -23.34,35.02 -58.38,54.48 -106.37,59.67l140.09 224.41 -66.14 0 -168.62 -274.98 -0.03 -1.31zm623.91 -297.05l0 53.17 -242.56 0 0 204.94 242.56 0 0 53.17 -242.56 0 0 208.84 242.56 0 0 51.88 -295.74 0 0 -572.03 295.74 0 0 0.02zm93.4 572.03l-55.77 0 221.81 -572.03 66.14 0 221.81 572.03 -59.67 0 -67.45 -179 -258.12 0 -68.75 179zm198.47 -521.44l-110.26 291.84 220.52 0 -110.26 -291.84zm355.4 469.56l202.34 0 0 51.88 -256.83 0 0 -572.03 53.17 0 0 520.15 1.31 0zm677.1 -28.54l182.9 -491.6 54.48 0 -217.91 572.03 -41.51 0 -216.62 -572.03 54.48 0 184.19 491.6zm334.65 80.42l-53.18 0 0 -572.03 53.18 0 0 572.03zm77.82 -163.43l53.17 0c0,27.23 9.08,53.17 24.65,77.82 16.86,24.65 44.1,37.62 83.01,38.91 35.02,-1.29 60.96,-11.68 79.13,-33.73 18.15,-22.05 27.23,-50.59 28.54,-84.32 -1.29,-40.2 -14.26,-67.45 -40.2,-83.01 -24.65,-15.57 -54.48,-28.54 -86.9,-37.62 -32.43,-9.08 -62.27,-23.34 -86.9,-42.8 -25.94,-19.46 -38.91,-53.17 -38.91,-101.18 0,-36.33 11.68,-70.04 36.33,-102.47 24.65,-32.43 63.56,-49.3 115.44,-51.88 47.99,1.29 84.32,16.86 107.66,46.7 23.34,29.83 36.33,64.85 37.62,105.07l-51.88 0c-1.29,-23.34 -9.08,-45.41 -23.34,-66.14 -14.26,-19.46 -37.62,-29.83 -68.75,-32.43 -32.43,1.29 -57.07,11.68 -72.64,32.43 -16.86,20.76 -24.65,42.81 -24.65,67.45 1.29,32.44 14.26,55.77 40.2,70.04 24.65,14.26 54.48,25.94 86.9,35.02 32.44,9.08 62.27,24.65 86.9,45.41 24.65,20.76 38.91,55.77 40.2,103.76 0,47.99 -12.97,89.5 -38.91,127.12 -25.94,36.33 -70.04,57.07 -129.71,58.37 -53.17,-2.6 -92.1,-20.76 -118.04,-57.07 -25.94,-35.02 -38.91,-73.93 -38.91,-115.44l-0.02 -0.02zm460.48 163.43l-53.17 0 0 -572.03 53.17 0 0 572.03zm136.2 -286.66c1.29,67.45 23.34,123.23 67.45,169.93 42.8,46.7 101.18,71.35 171.22,72.64 71.35,-2.6 127.12,-27.23 168.62,-76.53 41.51,-47.99 63.56,-105.07 64.85,-169.93 -1.29,-64.85 -24.65,-120.63 -68.75,-167.32 -44.1,-46.7 -99.87,-71.35 -168.62,-73.93 -68.75,2.6 -124.52,25.94 -167.32,72.64 -44.1,46.7 -66.14,103.76 -67.45,171.22l0 1.29zm238.67 -297.05c92.1,3.89 163.43,35.02 214.02,94.69 50.59,59.67 76.53,127.12 76.53,202.34 -1.29,75.24 -27.23,142.68 -79.13,202.35 -51.88,59.67 -124.52,90.79 -216.62,93.39 -90.79,-3.89 -162.14,-35.02 -212.73,-93.39 -50.59,-59.67 -76.53,-127.12 -77.82,-203.65 1.29,-79.13 27.23,-146.57 79.13,-204.94 51.88,-58.38 124.52,-88.21 215.31,-90.79l1.31 0.02zm749.72 516.25l0 -505.87 50.59 0 0 572.03 -66.14 0 -313.91 -503.28 0 503.28 -50.59 0 0 -572.03 66.14 0 313.91 505.87z"/>
   <path class="fil1" d="M1358.23 716.27l0 381.9 -41.94 0 0 -178.66 -227.06 0 0 178.66 -41.94 0 0 -381.9 41.94 0 0 171.55 227.06 0 0 -171.55 41.94 0zm486.23 291.2l-190.52 0 -36.55 90.69 -44.33 0 152.77 -376.98 47.33 0 152.17 376.98 -44.33 0 -36.54 -90.69zm-12.58 -31.69l-82.68 -206.52 -82.67 206.52 165.35 0zm531.16 122.38l-103.65 -159.53 -77.28 0 0 159.53 -41.94 0 0 -381.9 125.81 0c46.73,0 82.18,10.2 106.34,30.6 24.16,20.4 36.25,47.17 36.25,80.31 0,27.68 -8.69,51.27 -26.06,70.75 -17.37,19.48 -43.04,32.14 -76.99,37.97l107.84 162.27 -50.32 0zm-180.93 -190.68l84.47 0c32.75,0 57.41,-7.28 73.99,-21.85 16.57,-14.57 24.86,-34.05 24.86,-58.46 0,-25.13 -7.99,-44.53 -23.96,-58.19 -15.98,-13.66 -41.14,-20.49 -75.49,-20.49l-83.88 0 0 158.99zm581.49 -191.22c46.33,0 86.07,7.65 119.22,22.95 33.15,15.3 58.51,37.33 76.09,66.11 17.57,28.78 26.36,63.01 26.36,102.71 0,39.34 -8.79,73.3 -26.36,101.89 -17.57,28.59 -42.93,50.45 -76.09,65.56 -33.15,15.12 -72.89,22.67 -119.22,22.67l-124.01 0 0 -381.9 124.01 0zm0 350.21c58.31,0 102.75,-13.93 133.3,-41.8 30.55,-27.86 45.83,-66.74 45.83,-116.65 0,-50.26 -15.28,-89.51 -45.83,-117.74 -30.55,-28.23 -74.99,-42.34 -133.3,-42.34l-82.08 0 0 318.52 82.08 0zm954.73 -350.21l-118.62 381.9 -46.73 0 -105.44 -325.62 -107.84 325.62 -45.53 0.55 -116.23 -382.44 44.93 0 95.86 334.91 107.24 -334.91 46.73 0 104.24 334.91 96.46 -334.91 44.93 0zm454.48 291.2l-190.52 0 -36.55 90.69 -44.33 0 152.77 -376.98 47.33 0 152.17 376.98 -44.33 0 -36.55 -90.69zm-12.58 -31.69l-82.67 -206.52 -82.68 206.52 165.35 0zm531.16 122.38l-103.65 -159.53 -77.28 0 0 159.53 -41.94 0 0 -381.9 125.81 0c46.73,0 82.18,10.2 106.34,30.6 24.16,20.4 36.25,47.17 36.25,80.31 0,27.68 -8.69,51.27 -26.06,70.75 -17.37,19.48 -43.04,32.14 -76.99,37.97l107.84 162.27 -50.33 0zm-180.93 -190.68l84.47 0c32.75,0 57.41,-7.28 73.99,-21.85 16.58,-14.57 24.86,-34.05 24.86,-58.46 0,-25.13 -7.99,-44.53 -23.96,-58.19 -15.98,-13.66 -41.14,-20.49 -75.49,-20.49l-83.87 0 0 158.99zm499.41 -160.08l0 142.6 158.76 0 0 31.69 -158.76 0 0 144.78 176.74 0 0 31.69 -218.67 0 0 -382.44 218.67 0 0 31.69 -176.74 0z"/>
  </g>
 </g>
</svg>
