<svg xmlns="http://www.w3.org/2000/svg" width="26.046" height="30.834" viewBox="0 0 26.046 30.834">
  <path id="Trazado_7" data-name="Trazado 7" d="M12.761,25.189c-.093-.046-.186-.419-.233-.511l-3.07-7.767c-.046-.093-.046-.186-.093-.279a.664.664,0,0,1-.093-.279c.14-.093.233-.186.372-.279a.643.643,0,0,1,.186-.14l.186-.14c.233-.233.511-.465.744-.744l.233-.279a8.342,8.342,0,0,0,.976-1.628,9.474,9.474,0,0,0,.837-3.767A9.184,9.184,0,0,0,12.434,6.4l-.14-.419c-.186-.465-.326-.837-.558-1.3a10.987,10.987,0,0,0-.93-1.441l-.511-.558A12.17,12.17,0,0,0,9.179,1.655l-.326-.233c-.093-.093-.233-.14-.325-.233C8.435,1.143,8.3,1.05,8.2,1A6.782,6.782,0,0,0,6.3.259a6.916,6.916,0,0,0-3.767,0L1.97.4a2.279,2.279,0,0,0-.511.186C1.04.724.622.91.2,1.1a.791.791,0,0,1-.233.093C.249,1.7.481,2.213.76,2.724c.093.186.744,1.4.79,1.535a3.5,3.5,0,0,0,.6-.279l.465-.186c.046,0,.093-.046.186-.046a3.979,3.979,0,0,1,2.744-.14,4.726,4.726,0,0,1,1.3.6c.233.186.511.372.7.558l.186.186.14.186a5.887,5.887,0,0,1,1.4,3.767,8.268,8.268,0,0,1-.093,1.116,5.678,5.678,0,0,1-.837,2.233c-.093.14-.186.233-.279.372l-.14.14a4.184,4.184,0,0,1-.837.7,4.927,4.927,0,0,1-1.814.6,1.983,1.983,0,0,1-.511.093L6.853,19.7l.419,1.116c.14.372.279.7.419,1.07L8.11,23c.14.372.279.744.419,1.07a2.846,2.846,0,0,0,.233.558l1.953,4.93a5.507,5.507,0,0,0,.233.511,2.811,2.811,0,0,0,.372.372c.093.046.14.093.233.14a2.56,2.56,0,0,0,1.209.233,1.821,1.821,0,0,0,1.488-1.07c.279-.6.511-1.256.744-1.86.511-1.256.976-2.465,1.488-3.72,1.07-2.7,9.069-22.881,9.534-24.184H22.528c-3.116,8.325-6.6,16.65-9.813,24.928-.046.093-.046.14-.093.233l.138.048Z" transform="translate(0.03 0.02)" fill="#fff" fill-rule="evenodd"/>
</svg>
